<?xml version="1.0" encoding="UTF-8" standalone="no"?>
<!DOCTYPE svg PUBLIC "-//W3C//DTD SVG 1.1//EN" "http://www.w3.org/Graphics/SVG/1.1/DTD/svg11.dtd">
<svg width="16" height="16" viewBox="0 0 16 16" version="1.1" xmlns="http://www.w3.org/2000/svg" xmlns:xlink="http://www.w3.org/1999/xlink" xml:space="preserve" style="fill-rule:evenodd;clip-rule:evenodd;stroke-linecap:round;stroke-linejoin:round;stroke-miterlimit:1.5;">
    <g>
        <g transform="matrix(1.30752,0,0,1.30983,-3.10922,-1.6917)">
            <path d="M4.88,3.888L8.346,3.889" style="fill:none;stroke:black;stroke-width:0.15px;"/>
        </g>
        <g transform="matrix(1.30752,0,0,1.30983,-3.10922,-0.177224)">
            <path d="M4.88,3.888L8.346,3.889" style="fill:none;stroke:black;stroke-width:0.15px;"/>
        </g>
        <g transform="matrix(1.30752,0,0,1.30983,-3.10922,1.34227)">
            <path d="M4.88,3.888L8.346,3.889" style="fill:none;stroke:black;stroke-width:0.15px;"/>
        </g>
        <g transform="matrix(1.30752,0,0,1.30983,-3.10922,3.99098)">
            <path d="M4.88,3.888L8.346,3.889" style="fill:none;stroke:black;stroke-width:0.15px;"/>
        </g>
        <g transform="matrix(1.30752,0,0,1.30983,-3.10922,5.24001)">
            <path d="M4.88,3.888L8.346,3.889" style="fill:none;stroke:black;stroke-width:0.15px;"/>
        </g>
        <g transform="matrix(1.30752,0,0,1.30983,-3.10922,-1.6917)">
            <path d="M9.279,3.888L10.752,3.889" style="fill:none;stroke:black;stroke-width:0.15px;"/>
        </g>
        <g transform="matrix(1.30752,0,0,1.30983,-3.10922,-0.20151)">
            <path d="M9.279,3.888L10.752,3.889" style="fill:none;stroke:black;stroke-width:0.15px;"/>
        </g>
        <g transform="matrix(1.30752,0,0,1.30983,-3.10922,1.34344)">
            <path d="M9.279,3.888L10.752,3.889" style="fill:none;stroke:black;stroke-width:0.15px;"/>
        </g>
    </g>
    <g transform="matrix(1.30752,0,0,1.30983,-5.31676,0.783356)">
        <text x="10.069px" y="9.786px" style="font-family:'ArialMT', 'Arial', sans-serif;font-size:6px;fill:rgb(241,81,99);">$</text>
    </g>
    <g transform="matrix(1.26254,0,0,1.26477,-2.52931,-1.4219)">
        <path d="M11.784,4.156L13.635,4.154L13.565,2.127C13.531,1.643 13.015,1.274 12.349,1.43L4.367,1.396C3.892,1.414 3.56,1.742 3.589,2.662L3.592,13.446L4.475,12.363L5.304,13.433L6.064,12.263L6.94,13.441L7.751,12.336L8.547,13.454L9.375,12.312L10.192,13.457L10.982,12.34L11.879,13.449L11.767,2.446C11.741,1.953 12.002,1.641 12.349,1.43" style="fill:none;stroke:rgb(253,164,40);stroke-width:0.47px;"/>
    </g>
</svg>
