<?xml version="1.0" encoding="UTF-8" standalone="no"?>
<!DOCTYPE svg PUBLIC "-//W3C//DTD SVG 1.1//EN" "http://www.w3.org/Graphics/SVG/1.1/DTD/svg11.dtd">
<svg width="16" height="16" viewBox="0 0 16 16" version="1.1" xmlns="http://www.w3.org/2000/svg" xmlns:xlink="http://www.w3.org/1999/xlink" xml:space="preserve" style="fill-rule:evenodd;clip-rule:evenodd;stroke-linecap:round;stroke-linejoin:round;stroke-miterlimit:1.5;">
    <g transform="matrix(1,0,0,1,0,0.0447113)">
        <g id="Ebene1">
            <path d="M5.999,0.977L6.022,2.927L7.009,2.966L7.018,4.91C7.018,4.91 1.111,12.865 6.02,14.937C6.313,15.06 11.58,15.176 12.004,14.958C16.994,12.392 11.009,4.956 11.009,4.956L11.022,2.973L11.983,2.938L11.994,0.993L10.976,0.99L10.983,1.913L9.964,1.921L9.964,0.962L8.014,0.963L7.995,1.963L7.013,1.941L7.007,1.014L5.999,0.977Z" style="fill:rgb(255,194,13);stroke:rgb(255,255,188);stroke-width:0.1px;"/>
        </g>
    </g>
    <path d="M4.623,10.762C4.046,12.861 5.178,14.175 5.759,14.21" style="fill:none;stroke:rgb(255,255,141);stroke-opacity:0.5;stroke-width:0.1px;"/>
    <g transform="matrix(-1,0,0,1,17.6728,0.501225)">
        <path d="M4.108,10.358C3.53,12.456 5.178,14.175 5.759,14.21" style="fill:none;stroke:rgb(255,255,141);stroke-opacity:0.5;stroke-width:0.1px;"/>
    </g>
    <g transform="matrix(1,0,0,1,4.51786,4.69565)">
        <text x="1.842px" y="8.677px" style="font-family:'ArialMT', 'Arial', sans-serif;font-size:10px;fill:white;">$</text>
    </g>
</svg>
