<?xml version="1.0" encoding="UTF-8" standalone="no"?>
<!DOCTYPE svg PUBLIC "-//W3C//DTD SVG 1.1//EN" "http://www.w3.org/Graphics/SVG/1.1/DTD/svg11.dtd">
<svg width="16" height="16" viewBox="0 0 16 16" version="1.1" xmlns="http://www.w3.org/2000/svg" xmlns:xlink="http://www.w3.org/1999/xlink" xml:space="preserve" style="fill-rule:evenodd;clip-rule:evenodd;stroke-linejoin:round;stroke-miterlimit:1.41421;">
    <g transform="matrix(0.258988,-9.55733e-05,8.16723e-05,0.221319,8,5.80128)">
        <g transform="matrix(1,0,0,1,-30,-30)">
            <clipPath id="_clip1">
                <rect x="0" y="0" width="60" height="60"/>
            </clipPath>
            <g clip-path="url(#_clip1)">
                <g>
                    <path d="M50.976,20.694C50.448,11.694 43.029,4.5 34.084,4.5C28.654,4.5 23.396,7.163 20.139,11.508C20.064,11.469 19.985,11.442 19.909,11.406C19.711,11.31 19.51,11.219 19.305,11.137C19.191,11.092 19.077,11.051 18.962,11.011C18.759,10.94 18.553,10.877 18.343,10.82C18.228,10.789 18.114,10.757 17.998,10.731C17.773,10.68 17.543,10.641 17.311,10.606C17.21,10.591 17.111,10.571 17.009,10.56C16.677,10.523 16.341,10.5 16,10.5C11.037,10.5 7,14.537 7,19.5C7,19.629 7.008,19.755 7.017,19.881C2.857,22.148 0,26.899 0,31.654C0,38.737 5.762,44.5 12.845,44.5L18,44.5C18.553,44.5 19,44.053 19,43.5C19,42.947 18.553,42.5 18,42.5L12.845,42.5C6.865,42.5 2,37.635 2,31.654C2,27.5 4.705,23.188 8.433,21.401L9,21.13L9,20.5C9,20.38 9.008,20.258 9.015,20.135L9.026,19.95L9.013,19.756C9.007,19.671 9,19.586 9,19.5C9,15.641 12.141,12.5 16,12.5C16.309,12.5 16.614,12.527 16.917,12.567C16.995,12.577 17.073,12.59 17.15,12.603C17.417,12.647 17.68,12.705 17.939,12.78C17.974,12.79 18.01,12.797 18.045,12.807C18.33,12.894 18.608,13.004 18.88,13.128C18.951,13.16 19.02,13.195 19.09,13.229C19.33,13.348 19.565,13.478 19.792,13.625C21.719,14.873 23,17.038 23,19.5C23,20.053 23.447,20.5 24,20.5C24.553,20.5 25,20.053 25,19.5C25,16.746 23.754,14.281 21.8,12.629C24.667,8.879 29.388,6.5 34.084,6.5C41.829,6.5 48.262,12.635 48.933,20.388C47.912,20.316 46.381,20.279 44.85,20.512C44.304,20.595 43.929,21.105 44.012,21.651C44.087,22.146 44.513,22.501 44.999,22.501C45.049,22.501 45.1,22.497 45.15,22.489C47.377,22.152 49.698,22.468 49.834,22.487C54.49,23.372 58,27.661 58,32.472C58,38.001 53.501,42.5 47.972,42.5L44,42.5C43.447,42.5 43,42.947 43,43.5C43,44.053 43.447,44.5 44,44.5L47.972,44.5C54.604,44.5 60,39.104 60,32.472C60,26.983 56.173,22.06 50.976,20.694Z" style="fill:rgb(255,165,0);fill-rule:nonzero;stroke:rgb(255,165,0);stroke-width:1px;"/>
                    <path d="M38.293,45.793L32,52.086L32,31.5C32,30.947 31.553,30.5 31,30.5C30.447,30.5 30,30.947 30,31.5L30,52.086L23.707,45.793C23.316,45.402 22.684,45.402 22.293,45.793C21.902,46.184 21.902,46.816 22.293,47.207L30.292,55.206C30.384,55.299 30.495,55.372 30.618,55.423C30.74,55.474 30.87,55.5 31,55.5C31.13,55.5 31.26,55.474 31.382,55.423C31.505,55.372 31.616,55.299 31.708,55.206L39.707,47.207C40.098,46.816 40.098,46.184 39.707,45.793C39.316,45.402 38.684,45.402 38.293,45.793Z" style="fill:rgb(255,165,0);fill-rule:nonzero;stroke:rgb(255,165,0);stroke-width:1px;"/>
                </g>
            </g>
        </g>
    </g>
    <g transform="matrix(1,0,0,1,-4.74644,0.898519)">
        <text x="7.056px" y="15.101px" style="font-family:'ArialMT', 'Arial', sans-serif;font-size:6px;fill:none;">PDF</text>
        <text x="7.056px" y="15.101px" style="font-family:'ArialMT', 'Arial', sans-serif;font-size:6px;fill:rgb(34,34,34);">PDF</text>
    </g>
</svg>
